<svg xmlns="http://www.w3.org/2000/svg" width="1200" height="675" viewBox="0 0 1200 675">
  <rect width="1200" height="675" fill="#0d0d0f"/>
  <rect x="0" y="0" width="220" height="675" fill="#111113"/>
  <rect x="20" y="30" width="180" height="32" rx="6" fill="#18181b"/>
  <rect x="30" y="38" width="100" height="16" rx="3" fill="#22d3ee" fill-opacity="0.6"/>
  <rect x="20" y="90" width="180" height="36" rx="6" fill="#22d3ee" fill-opacity="0.1"/>
  <rect x="38" y="104" width="90" height="10" rx="3" fill="#22d3ee" fill-opacity="0.7"/>
  <rect x="20" y="136" width="180" height="36" rx="6" fill="transparent"/>
  <rect x="38" y="150" width="80" height="10" rx="3" fill="#3f3f46"/>
  <rect x="20" y="182" width="180" height="36" rx="6" fill="transparent"/>
  <rect x="38" y="196" width="100" height="10" rx="3" fill="#3f3f46"/>
  <rect x="20" y="228" width="180" height="36" rx="6" fill="transparent"/>
  <rect x="38" y="242" width="70" height="10" rx="3" fill="#3f3f46"/>
  <rect x="240" y="20" width="940" height="80" rx="8" fill="#111113"/>
  <rect x="260" y="38" width="120" height="22" rx="4" fill="#18181b"/>
  <rect x="400" y="38" width="120" height="22" rx="4" fill="#18181b"/>
  <rect x="540" y="38" width="120" height="22" rx="4" fill="#18181b"/>
  <rect x="1020" y="38" width="140" height="22" rx="11" fill="#22d3ee" fill-opacity="0.15" stroke="#22d3ee" stroke-width="1" stroke-opacity="0.4"/>
  <text x="1090" y="54" font-family="system-ui" font-size="11" fill="#22d3ee" text-anchor="middle">Add Item</text>
  <rect x="240" y="120" width="300" height="150" rx="8" fill="#111113"/>
  <rect x="260" y="140" width="80" height="12" rx="3" fill="#52525b"/>
  <rect x="260" y="165" width="120" height="28" rx="4" fill="#1a1a1d"/>
  <text x="260" y="156" font-family="system-ui" font-size="10" fill="#71717a">Total Items</text>
  <text x="260" y="182" font-family="system-ui" font-size="22" font-weight="bold" fill="#f4f4f5">1,248</text>
  <rect x="560" y="120" width="300" height="150" rx="8" fill="#111113"/>
  <text x="580" y="156" font-family="system-ui" font-size="10" fill="#71717a">Low Stock</text>
  <text x="580" y="182" font-family="system-ui" font-size="22" font-weight="bold" fill="#ef4444">14</text>
  <rect x="880" y="120" width="300" height="150" rx="8" fill="#111113"/>
  <text x="900" y="156" font-family="system-ui" font-size="10" fill="#71717a">Categories</text>
  <text x="900" y="182" font-family="system-ui" font-size="22" font-weight="bold" fill="#22d3ee">32</text>
  <rect x="240" y="290" width="940" height="360" rx="8" fill="#111113"/>
  <rect x="260" y="310" width="900" height="36" rx="4" fill="#18181b"/>
  <rect x="270" y="322" width="80" height="12" rx="3" fill="#3f3f46"/>
  <rect x="400" y="322" width="60" height="12" rx="3" fill="#3f3f46"/>
  <rect x="600" y="322" width="60" height="12" rx="3" fill="#3f3f46"/>
  <rect x="260" y="360" width="900" height="1" fill="#27272a"/>
  <rect x="260" y="370" width="900" height="40" rx="4" fill="transparent"/>
  <rect x="270" y="380" width="120" height="10" rx="3" fill="#52525b"/>
  <rect x="260" y="420" width="900" height="40" rx="4" fill="#18181b" fill-opacity="0.5"/>
  <rect x="270" y="432" width="100" height="10" rx="3" fill="#52525b"/>
  <rect x="260" y="470" width="900" height="40" rx="4" fill="transparent"/>
  <rect x="270" y="482" width="140" height="10" rx="3" fill="#52525b"/>
  <text x="600" y="655" font-family="system-ui,sans-serif" font-size="14" fill="#52525b" text-anchor="middle">Inventory ERP Module</text>
</svg>
