<svg xmlns="http://www.w3.org/2000/svg" width="1200" height="675" viewBox="0 0 1200 675">
  <rect width="1200" height="675" fill="#111113"/>
  <rect x="60" y="60" width="480" height="320" rx="8" fill="#1a1a1d" stroke="#22d3ee" stroke-width="1" stroke-opacity="0.3"/>
  <rect x="70" y="70" width="460" height="28" rx="4" fill="#0a0a0a"/>
  <circle cx="86" cy="84" r="5" fill="#ef4444"/>
  <circle cx="102" cy="84" r="5" fill="#eab308"/>
  <circle cx="118" cy="84" r="5" fill="#22c55e"/>
  <rect x="70" y="108" width="460" height="262" rx="4" fill="#0f0f11"/>
  <rect x="85" y="130" width="120" height="14" rx="3" fill="#22d3ee" fill-opacity="0.7"/>
  <rect x="85" y="155" width="200" height="10" rx="3" fill="#3f3f46"/>
  <rect x="85" y="175" width="160" height="10" rx="3" fill="#3f3f46"/>
  <rect x="85" y="210" width="80" height="80" rx="6" fill="#18181b" stroke="#22d3ee" stroke-width="1" stroke-opacity="0.4"/>
  <rect x="175" y="210" width="80" height="80" rx="6" fill="#18181b" stroke="#22d3ee" stroke-width="1" stroke-opacity="0.4"/>
  <rect x="265" y="210" width="80" height="80" rx="6" fill="#18181b" stroke="#22d3ee" stroke-width="1" stroke-opacity="0.4"/>
  <rect x="600" y="80" width="540" height="520" rx="12" fill="#18181b" stroke="#27272a" stroke-width="1"/>
  <rect x="625" y="110" width="490" height="40" rx="6" fill="#111113"/>
  <rect x="640" y="122" width="100" height="16" rx="3" fill="#22d3ee" fill-opacity="0.5"/>
  <rect x="625" y="165" width="230" height="120" rx="6" fill="#111113"/>
  <rect x="870" y="165" width="245" height="120" rx="6" fill="#111113"/>
  <rect x="625" y="300" width="490" height="60" rx="6" fill="#111113"/>
  <rect x="625" y="376" width="490" height="60" rx="6" fill="#111113"/>
  <rect x="625" y="452" width="140" height="36" rx="18" fill="#22d3ee" fill-opacity="0.15" stroke="#22d3ee" stroke-width="1" stroke-opacity="0.5"/>
  <text x="695" y="475" font-family="system-ui,sans-serif" font-size="13" fill="#22d3ee" text-anchor="middle">View Deck</text>
  <text x="600" y="640" font-family="system-ui,sans-serif" font-size="14" fill="#52525b" text-anchor="middle">One Piece TCG Deck Builder</text>
</svg>
